<?xml version="1.0" encoding="UTF-8" standalone="no"?>
<!-- Generator: Adobe Illustrator 13.0.0, SVG Export Plug-In . SVG Version: 6.00 Build 14576)  -->

<svg
   version="1.1"
   id="Layer_1"
   x="0px"
   y="0px"
   width="1024"
   height="436.94507"
   viewBox="0 0 1024 436.94506"
   enable-background="new 0 0 789.322 336.807"
   xml:space="preserve"
   sodipodi:docname="matrix-logo-light.svg"
   inkscape:version="1.1.2 (0a00cf5339, 2022-02-04, custom)"
   xmlns:inkscape="http://www.inkscape.org/namespaces/inkscape"
   xmlns:sodipodi="http://sodipodi.sourceforge.net/DTD/sodipodi-0.dtd"
   xmlns="http://www.w3.org/2000/svg"
   xmlns:svg="http://www.w3.org/2000/svg"><defs
   id="defs21" /><sodipodi:namedview
   id="namedview19"
   pagecolor="#ffffff"
   bordercolor="#666666"
   borderopacity="1.0"
   inkscape:pageshadow="2"
   inkscape:pageopacity="0"
   inkscape:pagecheckerboard="0"
   showgrid="false"
   inkscape:zoom="0.52101335"
   inkscape:cx="614.18772"
   inkscape:cy="156.42593"
   inkscape:window-width="1600"
   inkscape:window-height="831"
   inkscape:window-x="0"
   inkscape:window-y="0"
   inkscape:window-maximized="1"
   inkscape:current-layer="Layer_1"
   fit-margin-top="0"
   fit-margin-left="0"
   fit-margin-right="0"
   fit-margin-bottom="0" />
<path
   d="M 11.514976,10.002306 V 426.94148 h 30.006917 v 10.0036 H 0 V 0 h 41.521893 v 10.002306 z"
   id="path2"
   style="fill:#000000;fill-opacity:1;stroke-width:1.29732" />
<path
   d="m 127.12269,142.17804 v 21.09955 h 0.60066 c 5.62775,-8.03169 12.40623,-14.26788 20.3471,-18.68914 7.93568,-4.41346 17.03246,-6.62928 27.27866,-6.62928 9.84404,0 18.83833,1.91354 26.97509,5.72765 8.13936,3.8206 14.31978,10.54848 18.53994,20.19532 4.61845,-6.83037 10.89746,-12.8603 18.83833,-18.08459 7.93568,-5.22169 17.32954,-7.83838 28.18289,-7.83838 8.23925,0 15.87136,1.00672 22.9106,3.01626 7.02886,2.00954 13.05748,5.22429 18.08199,9.64425 5.01931,4.42384 8.93721,10.20079 11.75628,17.32824 2.81128,7.14043 4.22016,15.72607 4.22016,25.77638 v 104.28474 h -42.80234 v -88.31349 c 0,-5.2217 -0.19979,-10.14501 -0.60325,-14.76994 -0.40606,-4.61845 -1.50619,-8.63494 -3.31464,-12.05596 -1.80976,-3.41324 -4.47574,-6.12852 -7.98758,-8.13936 -3.51702,-2.00176 -8.29114,-3.01236 -14.31847,-3.01236 -6.02733,0 -10.90135,1.16239 -14.61946,3.46513 -3.7207,2.31441 -6.63188,5.33067 -8.74001,9.04359 -2.10944,3.72199 -3.51703,7.93957 -4.21888,12.66439 -0.70703,4.71964 -1.05601,9.49376 -1.05601,14.31588 v 86.80341 H 184.394 v -87.40666 c 0,-4.62104 -0.10508,-9.19408 -0.29838,-13.71263 -0.20498,-4.52374 -1.05602,-8.69201 -2.56609,-12.51261 -1.50749,-3.81411 -4.02039,-6.88096 -7.53611,-9.19537 -3.51703,-2.30274 -8.69072,-3.46513 -15.52239,-3.46513 -2.01213,0 -4.67423,0.45276 -7.98627,1.35958 -3.31594,0.90423 -6.53329,2.61539 -9.64555,5.1231 -3.11875,2.5142 -5.77824,6.13112 -7.98887,10.84946 -2.21192,4.72482 -3.31594,10.90004 -3.31594,18.53475 v 90.42422 H 86.735948 v -155.831 z"
   id="path4"
   style="fill:#000000;fill-opacity:1;stroke-width:1.29732" />
<path
   d="m 352.27965,165.08864 c 4.41736,-6.63318 10.04642,-11.95477 16.88068,-15.97774 6.82907,-4.01779 14.51177,-6.87967 23.0546,-8.58953 8.53893,-1.70597 17.13106,-2.5635 25.77118,-2.5635 7.83838,0 15.77277,0.55525 23.81094,1.65668 8.03687,1.1092 15.37319,3.27183 22.00507,6.48268 6.63058,3.21345 12.05466,7.6879 16.27612,13.41165 4.22017,5.72636 6.32961,13.31306 6.32961,22.75882 v 81.07446 c 0,7.04183 0.40217,13.76582 1.2078,20.19532 0.79785,6.43339 2.20673,11.25551 4.21757,14.46896 h -43.4017 c -0.80563,-2.41301 -1.46078,-4.87142 -1.96024,-7.38562 -0.50596,-2.50771 -0.85753,-5.06991 -1.05472,-7.684 -6.83297,7.03405 -14.87373,11.95736 -24.11062,14.77124 -9.24597,2.80609 -18.69043,4.21757 -28.33597,4.21757 -7.43752,0 -14.37037,-0.90552 -20.79987,-2.71139 -6.43209,-1.80975 -12.05596,-4.62104 -16.87808,-8.44552 -4.82342,-3.81152 -8.59083,-8.63494 -11.30351,-14.46119 -2.71269,-5.82624 -4.07098,-12.76558 -4.07098,-20.79986 0,-8.83861 1.55548,-16.12564 4.67553,-21.8468 3.11226,-5.73025 7.12875,-10.29939 12.05855,-13.71912 4.92072,-3.41453 10.54588,-5.97673 16.87808,-7.684 6.3283,-1.70597 12.70721,-3.05907 19.138,-4.06968 6.4308,-1.00153 12.7591,-1.80716 18.99011,-2.40912 6.22842,-0.60454 11.75628,-1.51007 16.5784,-2.71528 4.82342,-1.2052 8.63753,-2.96047 11.45401,-5.27359 2.80868,-2.31052 4.11508,-5.67575 3.91789,-10.0996 0,-4.61845 -0.75244,-8.28855 -2.25993,-10.99994 -1.50618,-2.71139 -3.51702,-4.82472 -6.02733,-6.3309 -2.5129,-1.50619 -5.42667,-2.51161 -8.74001,-3.01626 -3.31724,-0.49558 -6.88745,-0.75245 -10.70026,-0.75245 -8.44034,0 -15.07092,1.80976 -19.89434,5.42667 -4.82083,3.61692 -7.6399,9.64814 -8.44034,18.08459 h -42.79975 c 0.59936,-10.04382 3.10707,-18.38686 7.53351,-25.01355 z m 84.54478,60.43287 c -2.71139,0.90293 -5.62646,1.65408 -8.73872,2.25863 -3.11615,0.60325 -6.3802,1.10661 -9.79603,1.50618 -3.41843,0.40606 -6.83426,0.90553 -10.2475,1.50878 -3.21734,0.59806 -6.38149,1.40888 -9.49246,2.40911 -3.11875,1.01061 -5.83143,2.36371 -8.13936,4.07098 -2.31441,1.70857 -4.17217,3.87249 -5.57846,6.4788 -1.40758,2.61279 -2.10943,5.93003 -2.10943,9.94781 0,3.81411 0.70185,7.03405 2.10943,9.64036 1.40629,2.61669 3.31854,4.67553 5.72895,6.18171 2.41041,1.50618 5.2217,2.5635 8.44164,3.16286 3.21085,0.60455 6.52679,0.90552 9.94392,0.90552 8.43904,0 14.96714,-1.40369 19.59336,-4.22017 4.61975,-2.80998 8.03298,-6.17781 10.2475,-10.0996 2.20803,-3.9166 3.56632,-7.8773 4.06968,-11.90158 0.49817,-4.01778 0.75245,-7.23383 0.75245,-9.64424 v -15.97645 c -1.81106,1.61127 -4.07098,2.86577 -6.78497,3.7713 z"
   id="path6"
   style="fill:#000000;fill-opacity:1;stroke-width:1.29732" />
<path
   d="m 599.13422,142.17804 v 28.63436 h -31.34445 v 77.16305 c 0,7.22994 1.20391,12.05466 3.61692,14.46378 2.40782,2.41171 7.23383,3.61691 14.46767,3.61691 2.41171,0 4.71963,-0.0986 6.93156,-0.30097 2.20933,-0.19719 4.32006,-0.50336 6.3283,-0.90293 v 33.1555 c -3.61691,0.60325 -7.63729,1.00282 -12.05595,1.2078 -4.41996,0.1933 -8.74002,0.29838 -12.96019,0.29838 -6.63058,0 -12.91218,-0.45406 -18.83832,-1.35959 -5.93003,-0.90163 -11.15303,-2.6556 -15.67288,-5.27099 -4.52244,-2.6089 -8.09006,-6.3309 -10.70026,-11.15302 -2.61539,-4.81824 -3.91919,-11.15043 -3.91919,-18.99141 V 170.8124 h -25.92037 v -28.63436 h 25.92037 V 95.4591 h 42.80105 v 46.71894 z"
   id="path8"
   style="fill:#000000;fill-opacity:1;stroke-width:1.29732" />
<path
   d="m 660.31953,142.17804 v 28.93793 h 0.60326 c 2.00565,-4.82601 4.71704,-9.29267 8.13676,-13.41554 3.41713,-4.11509 7.33243,-7.63471 11.75368,-10.54848 4.41737,-2.90858 9.14219,-5.1698 14.17059,-6.78237 5.01801,-1.60478 10.2462,-2.41171 15.67287,-2.41171 2.81258,0 5.92354,0.50596 9.34327,1.50878 v 39.78868 c -2.01214,-0.40476 -4.42385,-0.75763 -7.23383,-1.05601 -2.81518,-0.30228 -5.52657,-0.45407 -8.13936,-0.45407 -7.83709,0 -14.46767,1.31029 -19.89045,3.9192 -5.42538,2.61279 -9.79474,6.17652 -13.11197,10.69896 -3.31465,4.52374 -5.68095,9.79474 -7.08594,15.82466 -1.405,6.02603 -2.10814,12.56061 -2.10814,19.59207 v 70.2276 h -42.79975 v -155.8297 z"
   id="path10"
   style="fill:#000000;fill-opacity:1;stroke-width:1.29732" />
<path
   d="M 738.08325,118.06353 V 82.798594 h 42.80364 v 35.264936 z m 42.80364,24.11451 v 155.8297 h -42.80364 v -155.8297 z"
   id="path12"
   style="fill:#000000;fill-opacity:1;stroke-width:1.29732" />
<path
   d="m 803.18905,142.17804 h 48.82708 l 27.43044,40.69032 27.12818,-40.69032 h 47.32089 l -51.23879,72.94289 57.57099,82.88811 h -48.83097 l -32.55355,-49.12936 -32.55484,49.12936 h -47.92026 l 56.06091,-81.98129 z"
   id="path14"
   style="fill:#000000;fill-opacity:1;stroke-width:1.29732" />
<path
   d="M 1012.4824,426.94148 V 10.002306 H 982.47551 V 0 H 1024 v 436.94508 h -41.52449 v -10.0036 z"
   id="path16"
   style="fill:#000000;fill-opacity:1;stroke-width:1.29732" />
</svg>
