<svg viewBox="0 0 6250 2084" xmlns="http://www.w3.org/2000/svg" fill-rule="evenodd" clip-rule="evenodd" stroke-linejoin="round" stroke-miterlimit="2"><g fill-rule="nonzero"><path d="M3126.39 1352.8h3040.3l-144.704 88.865h-2895.6V1352.8zm63.22-527.972h-61.706v443.02h238.783l7.17-53.449H3189.61V824.828zm501.032 443.02h64.964l-142.965-443.02h-78.219l-143.835 443.02h62.575l33.895-111.244h169.69l33.895 111.244zm-188.811-160.782l70.397-231.613 69.527 231.613h-139.924zm623.357-282.238h-62.357v296.361c0 68.875-30.636 102.987-94.949 102.987-63.878 0-94.514-34.112-94.514-102.987V824.828h-61.705v300.923c0 87.996 53.884 149.919 156.219 149.919 100.815 0 157.306-61.923 157.306-149.919V824.828zm438.023 0h-58.012v241.825c0 53.884 7.17 124.715 8.474 134.927l-184.248-376.752h-80.608v443.02h58.012v-203.15c0-82.347-5.215-136.448-8.474-173.167l182.075 376.317h82.781v-443.02zm286.801-7.822c-101.467 0-185.986 79.088-185.986 229.006 0 149.267 78.653 229.658 187.289 229.658 60.619 0 103.422-24.552 128.191-49.538l-30.635-38.675c-25.421 18.685-53.232 36.719-95.6 36.719-69.528 0-123.629-50.19-123.629-178.164 0-133.84 56.709-178.816 124.281-178.816 31.287 0 58.663 10.212 86.474 32.809l33.895-39.327c-35.85-28.245-67.572-43.672-124.28-43.672zm458.012 450.842h61.922v-443.02h-61.922v185.117H5119.43V824.828h-61.922v443.02h61.922v-207.713h188.594v207.713zm434.763-443.02h-242.694v443.02h247.909v-48.886h-186.203v-151.874h151.005v-48.67h-151.005V873.714h173.818l7.17-48.886zm344.161 443.02h73.438l-121.021-198.805c64.53-19.12 96.904-56.491 96.904-118.848 0-82.999-58.446-125.367-170.342-125.367h-117.762v443.02h61.705v-187.724h69.745l107.333 187.724zm-177.078-234.655V872.411h55.405c73.438 0 105.378 22.379 105.378 77.784 0 59.75-35.851 82.998-98.208 82.998h-62.575z" fill="#3b3b3b"/><path d="M3245.27 735.746l2921.42 3.042-144.704-95.166-2775.45-1.955-1.261 94.079zm-761.943 705.921h117.327l-258.338-800h-141.01l-259.641 800h112.764l61.054-200.978h306.573l61.271 200.978zm-340.685-290.277l126.888-418.034 125.584 418.034h-252.472zm1103.89-509.723h-679.989v94.079h230.31v705.921h111.679V735.746h336.739l1.261-94.079z" fill="#89c236"/></g><g fill-rule="nonzero"><path d="M906.901 83.333l271.883 158.709-823.568 477.711-271.883-157.65 823.568-478.77zm87.108 370.32l273.467-158.709 462.993 271.391-275.579 153.418-460.881-266.1z" fill="#3b3b3b"/><path d="M83.333 562.103v959.127L906.901 2000v-316.358L356.8 1362.522l-1.584-642.769-271.883-157.65z" fill="#2e2e2e"/><path d="M1730.47 1517l-823.568 483.002v-316.358l549.045-320.062-1.056-643.827 275.579-153.418V1517z" fill="#333"/><path d="M1454.89 719.753l-547.989 309.482v165.056l213.811-122.734v487.763l138.317-80.941V989.557l195.861-115.328V719.753z" fill="#89c236"/><path d="M355.216 719.753l1.584 642.769 152.043 89.935v-198.386l230.177 132.257v198.914l168.409 98.4v-654.407L355.216 719.753zm382.748 530.086L510.955 1118.64V968.925l227.009 126.967v153.947z" fill="#7baf31"/></g></svg>