<svg width="341" height="32" viewBox="0 0 341 32" fill="none" xmlns="http://www.w3.org/2000/svg">
<g clip-path="url(#clip0)">
<path d="M324.854 15.4195V23.1804C324.854 24.3301 324.998 25.0487 325.141 25.3361C325.285 25.6236 326.003 25.6236 327.008 25.6236C327.152 25.6236 327.439 25.6236 327.869 25.6236C328.3 25.6236 328.874 25.6236 329.449 25.6236C330.023 25.6236 330.454 25.6236 330.885 25.6236H331.602C332.464 25.6236 333.182 25.6236 333.756 25.4799C334.33 25.3361 334.761 25.1924 335.192 24.905C335.623 24.6176 336.053 24.1864 336.341 23.7552C336.771 23.3241 337.058 22.7492 337.633 22.0306L339.356 21.8869C338.925 22.7492 338.494 23.4678 338.207 24.1864C337.92 24.905 337.776 25.6236 337.633 26.3422C337.489 27.0608 337.346 27.6356 337.202 28.2105C337.058 28.7854 337.058 29.2166 336.915 29.6477C336.771 29.6477 336.341 29.6477 335.623 29.6477C334.905 29.6477 333.9 29.6477 332.751 29.504C331.602 29.504 330.454 29.504 329.592 29.504H318.968C318.393 29.504 317.675 29.504 317.101 29.6477C316.527 29.6477 315.665 29.7914 314.517 29.9352H313.655V28.3542C313.799 28.3542 313.942 28.3542 314.086 28.3542C314.229 28.3542 314.373 28.3542 314.373 28.3542C315.952 28.2105 316.957 27.9231 317.388 27.3482C317.819 26.7733 317.963 25.911 317.963 24.6176V5.9341C317.963 4.64063 317.819 3.77831 317.388 3.20344C316.957 2.62856 315.952 2.34112 314.373 2.19741C314.229 2.19741 314.086 2.19741 314.086 2.19741C313.942 2.19741 313.799 2.19741 313.655 2.19741V0.472778L314.517 0.616497C315.665 0.760216 316.527 0.760216 317.101 0.903935C317.675 0.903935 318.25 0.903935 318.968 0.903935H336.915L337.92 7.94616H336.484C336.341 7.22757 336.053 6.65269 335.91 6.22153C335.766 5.79038 335.479 5.50294 335.192 5.2155C334.905 4.92806 334.618 4.78435 334.187 4.78435C333.756 4.78435 333.182 4.64063 332.464 4.64063L324.854 4.49691V11.9703H330.023C330.454 11.9703 330.885 11.6829 331.172 11.2517C331.459 10.8205 331.746 10.3894 331.89 9.95823H332.464C333.182 11.6829 334.33 12.8326 336.053 13.5512V14.1261C334.33 14.8447 333.182 15.9944 332.464 17.719H331.89C331.746 17.2879 331.459 16.8567 331.172 16.4256C330.885 15.9944 330.454 15.707 330.023 15.707H324.854V15.4195Z" fill="#F16436"/>
<path d="M263.69 15.4195C264.551 16.5693 265.413 17.8628 266.274 19.1562C267.136 20.4497 267.997 21.7432 268.715 22.8929C269.433 24.0427 270.151 25.0487 270.582 25.7673C271.156 26.6296 271.443 27.0608 271.587 27.2045C271.73 27.4919 272.018 27.9231 272.305 28.3542C272.592 28.7854 272.879 29.2166 273.166 29.6477C273.453 30.0789 273.597 30.3663 273.74 30.6537C273.884 30.9412 273.884 31.0849 273.74 31.2286C273.453 31.5161 273.023 31.5161 272.448 31.3723C271.874 31.0849 271.012 30.51 269.864 29.504L256.367 17.4316C255.219 17.2879 254.214 17.2879 253.352 17.1442V24.4738C253.352 25.7673 253.496 26.6296 253.927 27.2045C254.357 27.7794 255.362 28.0668 256.942 28.3542C257.229 28.3542 257.373 28.3542 257.66 28.3542L257.803 29.7914H256.942C255.793 29.6477 254.932 29.6477 254.357 29.504C253.783 29.504 253.209 29.3603 252.491 29.3603H247.466C246.891 29.3603 246.173 29.3603 245.599 29.504C245.025 29.504 244.163 29.6477 243.015 29.7914H242.01V28.3542C242.297 28.3542 242.584 28.3542 242.728 28.3542C244.307 28.2105 245.312 27.7794 245.743 27.2045C246.173 26.6296 246.317 25.7673 246.317 24.4738V5.79038C246.317 4.49691 246.173 3.63459 245.743 3.05972C245.312 2.48484 244.307 2.19741 242.728 1.90997C242.584 1.90997 242.297 1.90997 242.01 1.90997V0.472778L243.015 0.616497C244.163 0.760216 245.025 0.760216 245.599 0.903935C246.173 0.903935 246.604 0.903935 246.891 0.903935C247.178 0.903935 247.753 0.903935 248.758 0.903935C249.619 0.903935 250.624 0.903935 251.917 0.903935C253.065 0.903935 254.214 0.903935 255.506 0.903935C256.655 0.903935 257.66 0.903935 258.234 0.903935C261.536 0.903935 264.121 1.62253 265.987 3.05972C267.854 4.49691 268.715 6.22153 268.715 8.2336C268.715 9.81451 268.284 11.3954 267.423 12.6889C266.562 13.9824 264.982 14.7009 263.69 15.4195ZM255.506 14.9884C257.085 14.9884 258.378 14.4135 259.526 13.4075C260.675 12.4014 261.249 10.8205 261.249 8.95219C261.249 7.51501 260.818 6.36525 259.957 5.2155C259.095 4.06575 257.803 3.49088 255.937 3.49088C255.075 3.49088 254.357 3.49088 253.927 3.77831C253.352 3.92203 253.209 4.35319 253.209 5.07178V14.8447C254.357 14.9884 255.075 14.9884 255.506 14.9884Z" fill="#F16436"/>
<path d="M185.296 27.2045C185.727 27.7794 186.732 28.0668 188.311 28.3542C188.598 28.3542 188.742 28.3542 189.029 28.3542L189.173 29.9352H188.311C187.163 29.7914 186.301 29.7914 185.727 29.6477C185.152 29.6477 184.578 29.504 183.86 29.504H178.835C178.261 29.504 177.543 29.504 176.968 29.6477C176.394 29.6477 175.533 29.7914 174.384 29.9352H173.379V28.3542C173.666 28.3542 173.953 28.3542 174.097 28.3542C175.676 28.2105 176.681 27.7794 177.112 27.2045C177.543 26.6296 177.686 25.7673 177.686 24.4738V5.9341C177.686 4.64063 177.543 3.77831 177.112 3.20344C176.681 2.62856 175.676 2.34112 174.097 2.19741C173.953 2.19741 173.81 2.19741 173.81 2.19741C173.666 2.19741 173.523 2.19741 173.379 2.19741V0.472778L174.24 0.616497C175.389 0.760216 176.251 0.760216 176.825 0.903935C177.399 0.903935 177.974 0.903935 178.691 0.903935H196.639L197.644 7.94616H196.208C196.064 7.22757 195.777 6.65269 195.634 6.22153C195.49 5.79038 195.203 5.50294 194.916 5.2155C194.629 4.92806 194.341 4.78435 193.911 4.78435C193.48 4.78435 192.906 4.64063 192.188 4.64063L184.578 4.49691V11.9703H189.747C190.178 11.9703 190.608 11.6829 190.896 11.2517C191.183 10.8205 191.47 10.3894 191.614 9.95823H192.188C192.906 11.6829 194.054 12.8326 195.777 13.5512V14.1261C194.054 14.8447 192.906 15.9944 192.188 17.719H191.614C191.47 17.2879 191.183 16.8567 190.896 16.4256C190.608 15.9944 190.178 15.707 189.747 15.707H184.578V24.6176C184.722 25.7673 185.009 26.6296 185.296 27.2045Z" fill="#F16436"/>
<path d="M292.98 30.5101C290.683 30.5101 288.385 30.0789 286.375 29.3603C284.365 28.6417 282.499 27.6357 280.919 26.3422C279.34 25.0487 278.191 23.4678 277.33 21.5995C276.468 19.7312 276.038 17.7191 276.038 15.4196C276.038 13.2638 276.468 11.2517 277.33 9.38339C278.191 7.51504 279.34 5.79042 280.919 4.35323C282.499 2.91604 284.222 1.76629 286.375 0.903974C288.529 0.0416608 290.683 -0.389496 293.123 -0.389496C294.559 -0.389496 295.995 -0.245777 297.144 0.0416609C298.292 0.329099 299.297 0.616536 300.302 0.903974C301.164 1.19141 302.025 1.47885 302.743 1.62257C303.461 1.76629 304.035 1.76629 304.466 1.33513L304.897 9.52711H303.605C303.461 8.52108 303.03 7.65876 302.312 6.94017C301.595 6.22157 300.877 5.50298 300.015 4.9281C299.154 4.35323 298.149 3.92207 297.144 3.63463C296.139 3.3472 295.134 3.20348 293.985 3.20348C292.406 3.20348 290.97 3.49091 289.678 4.20951C288.385 4.9281 287.237 5.79042 286.375 6.79645C285.514 7.9462 284.796 9.09595 284.365 10.6769C283.934 12.114 283.647 13.695 283.791 15.2759C283.934 17.0005 284.222 18.4377 284.94 19.8749C285.514 21.3121 286.375 22.4618 287.38 23.4678C288.385 24.4739 289.534 25.1925 290.97 25.7673C292.262 26.3422 293.698 26.6297 295.134 26.6297C296.282 26.6297 297.431 26.4859 298.579 26.1985V21.3121C298.579 20.0186 298.436 19.1563 298.005 18.5814C297.574 18.0065 296.569 17.7191 294.99 17.4316C294.703 17.4316 294.559 17.4316 294.272 17.4316V15.9945H295.134C296.282 16.1382 297.144 16.1382 297.718 16.2819C298.292 16.2819 298.867 16.4256 299.585 16.4256H304.61C305.184 16.4256 305.902 16.4256 306.476 16.2819C307.051 16.1382 307.912 16.1382 309.061 15.9945H310.066V17.4316C309.779 17.4316 309.491 17.4316 309.348 17.4316C307.768 17.5754 306.763 18.0065 306.333 18.5814C305.902 19.1563 305.758 20.0186 305.758 21.3121C305.758 25.3362 305.471 27.6357 304.753 27.9231C304.035 28.2106 303.174 28.498 302.025 28.9292C300.877 29.3603 299.585 29.6478 298.149 29.9352C296.282 30.3663 294.703 30.5101 292.98 30.5101Z" fill="#F16436"/>
<path d="M236.266 14.701C236.266 16.8568 235.836 18.8688 234.974 20.7372C234.113 22.6055 232.964 24.3302 231.528 25.7673C230.093 27.2045 228.226 28.3543 226.216 29.2166C224.206 30.0789 221.909 30.5101 219.468 30.5101C217.171 30.5101 214.873 30.0789 212.863 29.3603C210.853 28.6417 208.987 27.6357 207.407 26.3422C205.828 25.0487 204.679 23.4678 203.818 21.5995C202.956 19.7312 202.526 17.7191 202.526 15.4196C202.526 13.2638 202.956 11.2517 203.818 9.38339C204.679 7.51504 205.828 5.79042 207.407 4.35323C208.987 2.91604 210.709 1.76629 212.863 0.903974C215.017 0.0416608 217.171 -0.389496 219.611 -0.389496C221.909 -0.389496 224.206 -0.102058 226.216 0.616536C228.226 1.33513 230.093 2.34116 231.528 3.63463C233.108 4.9281 234.256 6.50901 235.118 8.37736C235.836 10.3894 236.266 12.4015 236.266 14.701ZM229.088 15.1321C228.944 13.5512 228.657 12.114 228.082 10.8206C227.508 9.52711 226.79 8.23364 225.785 7.22761C224.78 6.22157 223.775 5.35926 222.483 4.78438C221.191 4.20951 219.899 4.06579 218.319 4.06579C216.883 4.06579 215.591 4.35323 214.443 4.9281C213.294 5.50298 212.432 6.36529 211.571 7.37133C210.853 8.37736 210.279 9.52711 209.848 10.9643C209.417 12.4015 209.417 13.695 209.561 15.2759C209.704 16.8568 210.135 18.294 210.709 19.5874C211.284 20.8809 212.002 22.1744 213.007 23.1804C214.012 24.1864 215.017 25.0487 216.309 25.6236C217.601 26.1985 218.893 26.4859 220.473 26.4859C221.909 26.4859 223.201 26.1985 224.349 25.6236C225.498 25.0487 226.36 24.1864 227.221 23.1804C227.939 22.1744 228.513 21.0246 228.944 19.5874C229.088 18.1502 229.231 16.7131 229.088 15.1321ZM219.755 19.7311H219.037C218.176 17.7191 216.596 16.2819 214.586 15.4196V14.701C216.596 13.8387 218.032 12.2578 219.037 10.2457H219.755C220.616 12.2578 222.052 13.695 224.062 14.701V15.4196C222.052 16.2819 220.616 17.7191 219.755 19.7311Z" fill="#F16436"/>
<path d="M151.986 15.4196V23.1804C151.986 24.3302 152.129 25.0488 152.273 25.3362C152.416 25.6236 153.134 25.6236 154.139 25.6236C154.283 25.6236 154.57 25.6236 155.001 25.6236C155.432 25.6236 156.006 25.6236 156.58 25.6236C157.155 25.6236 157.585 25.6236 158.016 25.6236H158.734C159.595 25.6236 160.313 25.6236 160.888 25.4799C161.462 25.3362 161.893 25.1925 162.323 24.9051C162.754 24.6176 163.185 24.1865 163.472 23.7553C163.903 23.3241 164.19 22.7493 164.764 22.0307L166.487 21.887C166.056 22.7493 165.626 23.4679 165.338 24.1865C165.051 24.9051 164.908 25.6236 164.764 26.3422C164.621 27.0608 164.477 27.6357 164.333 28.2106C164.19 28.7855 164.19 29.2166 164.046 29.6478C163.903 29.6478 163.472 29.6478 162.754 29.6478C162.036 29.6478 161.031 29.6478 159.883 29.5041C158.734 29.5041 157.585 29.5041 156.724 29.5041H146.099C145.525 29.5041 144.807 29.5041 144.232 29.6478C143.658 29.6478 142.797 29.7915 141.648 29.9352H140.787V28.3543C140.93 28.3543 141.074 28.3543 141.217 28.3543C141.361 28.3543 141.504 28.3543 141.504 28.3543C143.084 28.2106 144.089 27.9231 144.52 27.3483C144.95 26.7734 145.094 25.9111 145.094 24.6176V5.93416C145.094 4.64069 144.95 3.77837 144.52 3.2035C144.089 2.62862 143.084 2.34119 141.504 2.19747C141.361 2.19747 141.217 2.19747 141.217 2.19747C141.074 2.19747 140.93 2.19747 140.787 2.19747V0.472839L141.648 0.616558C142.797 0.760277 143.658 0.760277 144.232 0.903996C144.807 0.903996 145.381 0.903996 146.099 0.903996H164.046L165.051 7.94622H163.616C163.472 7.22763 163.185 6.65275 163.041 6.2216C162.898 5.79044 162.61 5.503 162.323 5.21556C162.036 4.92813 161.749 4.78441 161.318 4.78441C160.888 4.78441 160.313 4.64069 159.595 4.64069L151.986 4.49697V11.9704H157.155C157.585 11.9704 158.016 11.6829 158.303 11.2518C158.59 10.8206 158.877 10.3894 159.021 9.95829H159.595C160.313 11.6829 161.462 12.8327 163.185 13.5513V14.1261C161.462 14.8447 160.313 15.9945 159.595 17.7191H159.165C159.021 17.288 158.734 16.8568 158.447 16.4256C158.16 15.9945 157.729 15.707 157.298 15.707H151.986V15.4196Z" fill="white"/>
<path d="M101.302 15.4196C102.164 16.5694 103.025 17.8628 103.887 19.1563C104.748 20.4498 105.61 21.7432 106.328 22.893C107.046 24.0427 107.764 25.0488 108.194 25.7674C108.769 26.6297 109.056 27.0608 109.199 27.2046C109.343 27.492 109.63 27.9232 109.917 28.3543C110.204 28.7855 110.492 29.2166 110.779 29.6478C111.066 30.0789 111.209 30.3664 111.353 30.6538C111.497 30.9412 111.497 31.085 111.353 31.2287C111.066 31.5161 110.635 31.5161 110.061 31.3724C109.486 31.085 108.625 30.5101 107.476 29.5041L93.98 17.4317C92.8314 17.288 91.8263 17.288 90.9648 17.1442V24.4739C90.9648 25.7674 91.1084 26.6297 91.5392 27.2046C91.9699 27.7794 92.9749 28.0669 94.5543 28.3543C94.8415 28.3543 94.985 28.3543 95.2722 28.3543L95.4158 29.7915H94.5543C93.4057 29.6478 92.5442 29.6478 91.9699 29.5041C91.3956 29.5041 90.8213 29.3603 90.1034 29.3603H85.0781C84.5038 29.3603 83.7859 29.3603 83.2116 29.5041C82.6373 29.5041 81.7758 29.6478 80.6272 29.7915H79.6221V28.3543C79.9093 28.3543 80.1964 28.3543 80.34 28.3543C81.9194 28.2106 82.9244 27.7794 83.3552 27.2046C83.7859 26.6297 83.9295 25.7674 83.9295 24.4739V5.79044C83.9295 4.49697 83.7859 3.63466 83.3552 3.05978C82.9244 2.4849 81.9194 2.19747 80.34 1.91003C80.1964 1.91003 79.9093 1.91003 79.6221 1.91003V0.472839L80.6272 0.616558C81.7758 0.760277 82.6373 0.760277 83.2116 0.903996C83.7859 0.903996 84.2166 0.903996 84.5038 0.903996C84.791 0.903996 85.3653 0.903996 86.3703 0.903996C87.2318 0.903996 88.2368 0.903996 89.5291 0.903996C90.6777 0.903996 91.8263 0.903996 93.1185 0.903996C94.2671 0.903996 95.2722 0.903996 95.8465 0.903996C99.1488 0.903996 101.733 1.62259 103.6 3.05978C105.466 4.49697 106.328 6.2216 106.328 8.23366C106.328 9.81457 105.897 11.3955 105.036 12.6889C104.174 13.9824 102.595 14.701 101.302 15.4196ZM93.1185 14.9885C94.6979 14.9885 95.9901 14.4136 97.1387 13.4075C98.2874 12.4015 98.8617 10.8206 98.8617 8.95226C98.8617 7.51507 98.4309 6.36531 97.5695 5.21556C96.708 4.06581 95.4158 3.49094 93.5493 3.49094C92.6878 3.49094 91.9699 3.49094 91.5392 3.77837C90.9648 3.92209 90.8213 4.35325 90.8213 5.07184V14.8447C91.9699 14.9884 92.6878 14.9885 93.1185 14.9885Z" fill="white"/>
<path d="M55.7881 28.6417C54.2088 29.3603 52.6294 29.7915 50.9065 29.7915C49.6143 29.7915 48.3221 29.6478 47.1734 29.2166C46.0248 28.7855 45.0197 28.2106 44.1583 27.3483C43.2968 26.486 42.7225 25.4799 42.1482 24.1865C41.7174 22.893 41.4303 21.3121 41.4303 19.3V5.79044C41.4303 4.49697 41.2867 3.63465 40.856 3.05978C40.4252 2.4849 39.4202 2.19747 37.8408 1.91003C37.6972 1.91003 37.4101 1.91003 37.1229 1.91003V0.472839L38.128 0.616558C39.2766 0.760277 40.1381 0.760277 40.7124 0.903996C41.2867 0.903996 41.861 0.903996 42.5789 0.903996H47.6042C48.1785 0.903996 48.8964 0.903996 49.4707 0.903996C50.045 0.903996 50.9065 0.760277 52.0551 0.616558L52.9166 0.472839L52.773 1.91003C52.4858 1.91003 52.3423 1.91003 52.0551 1.91003C50.4757 2.05375 49.4707 2.4849 49.0399 3.05978C48.6092 3.63465 48.4656 4.49697 48.4656 5.79044V19.3C48.4656 21.7432 49.0399 23.4679 50.045 24.4739C51.05 25.4799 52.3423 26.0548 53.778 26.0548C54.9267 26.0548 56.0753 25.6236 57.2239 24.9051C58.229 24.1865 59.0904 23.1804 59.8083 21.887V5.79044C59.8083 4.49697 59.6648 3.63465 59.234 3.05978C58.8033 2.4849 57.7982 2.19747 56.2189 1.91003C56.0753 1.91003 55.7881 1.91003 55.501 1.91003V0.472839L56.506 0.616558C57.6547 0.760277 58.5161 0.760277 59.0904 0.903996C59.6648 0.903996 60.2391 0.903996 60.957 0.903996H65.9822C66.5565 0.903996 67.2744 0.903996 67.8487 0.903996C68.4231 0.903996 69.2845 0.760277 70.4332 0.616558L71.4382 0.472839L71.2946 1.91003C71.0075 1.91003 70.8639 1.91003 70.5767 1.91003C68.5666 2.19747 67.5616 2.62862 67.2744 3.05978C66.8437 3.63465 66.7001 4.49697 66.7001 5.79044V24.3302C66.7001 25.6236 66.8437 26.486 67.2744 27.0608C67.7052 27.6357 68.7102 27.9231 70.2896 28.2106C70.5767 28.2106 70.7203 28.2106 71.0075 28.2106L71.151 29.7915H70.146C68.9974 29.6478 68.1359 29.6478 67.5616 29.5041C66.9873 29.5041 66.413 29.3603 65.6951 29.3603H59.6648V25.4799C58.6597 26.7734 57.3675 27.9231 55.7881 28.6417Z" fill="white"/>
<path d="M30.0876 27.9231C29.6568 28.2106 28.9389 28.6417 28.221 28.9292C27.3596 29.2166 26.4981 29.5041 25.4931 29.7915C24.488 30.0789 23.483 30.2226 22.4779 30.3664C21.4729 30.5101 20.4678 30.6538 19.6063 30.6538C17.3091 30.6538 15.0118 30.2226 13.0017 29.5041C10.9916 28.7855 9.1251 27.7794 7.54573 26.486C5.96637 25.1925 4.81774 23.6116 3.95627 21.7432C3.0948 19.8749 2.66406 17.8628 2.66406 15.5633C2.66406 13.4075 3.0948 11.3955 3.95627 9.52713C4.81774 7.65878 5.96637 5.93415 7.54573 4.49697C9.1251 3.05978 10.848 1.91003 13.0017 1.04771C15.1554 0.185399 17.3091 -0.245758 19.7499 -0.245758C21.1857 -0.245758 22.4779 -0.102039 23.6265 0.185399C24.6316 0.472836 25.6366 0.760274 26.3545 1.04771C27.216 1.33515 27.7903 1.47887 28.3646 1.62259C28.9389 1.76631 29.5133 1.62259 29.944 1.33515L30.3747 8.95225H29.0825C28.5082 6.94019 27.5032 5.64672 25.9238 4.7844C24.3444 3.92209 22.4779 3.49093 20.3242 3.49093C18.7449 3.49093 17.3091 3.77837 16.0169 4.49697C14.7247 5.21556 13.576 6.07787 12.7146 7.08391C11.8531 8.23366 11.1352 9.38341 10.7045 10.9643C10.2737 12.4015 9.98657 13.9824 10.1301 15.5633C10.2737 17.2879 10.5609 18.7251 11.2788 20.1623C11.8531 21.5995 12.7146 22.7493 13.7196 23.7553C14.7247 24.7613 15.8733 25.4799 17.3091 26.0548C18.6013 26.6297 20.0371 26.9171 21.4729 26.9171C22.6215 26.9171 23.6265 26.7734 24.488 26.6297C25.3495 26.486 26.2109 26.1985 26.9288 25.6236C27.6467 25.1925 28.221 24.4739 28.6518 23.7553C29.0825 23.0367 29.3697 21.887 29.5133 20.5935H30.949L30.0876 27.9231Z" fill="white"/>
<path d="M135.331 21.8869C135.331 22.893 135.044 23.899 134.469 24.905C133.895 25.9111 133.177 26.7734 132.172 27.6357C131.167 28.498 130.018 29.2166 128.726 29.6478C127.434 30.0789 125.854 30.3664 124.275 30.3664C122.409 30.3664 120.686 30.0789 119.25 29.5041C117.814 28.9292 116.665 28.6417 115.948 28.3543L114.655 20.5935H116.235C116.809 22.7493 117.527 24.4739 118.676 25.4799C119.824 26.486 121.26 27.0608 123.27 27.0608C124.993 27.0608 126.285 26.7734 127.29 25.9111C128.295 25.1925 128.726 24.1865 128.726 22.7493C128.726 21.4558 128.152 20.306 126.86 19.3C125.711 18.294 123.844 17.1442 121.404 15.8508C119.537 14.8447 117.958 13.5513 116.809 12.1141C115.66 10.6769 115.086 9.09596 115.086 7.37134C115.086 4.92812 115.948 3.05977 117.527 1.62258C119.25 0.185391 121.404 -0.533203 124.275 -0.533203C125.137 -0.533203 125.854 -0.533203 126.572 -0.245765C127.29 -0.102046 128.008 0.0416724 128.582 0.185391C129.3 0.32911 129.875 0.472829 130.449 0.616548C131.023 0.760267 131.741 0.760267 132.603 0.760267L133.608 7.37134H132.316C131.454 5.50299 130.449 4.20952 129.157 3.49093C127.865 2.77233 126.716 2.48489 125.424 2.48489C124.132 2.48489 123.126 2.77233 122.409 3.49093C121.691 4.20952 121.26 5.07183 121.26 6.07787C121.26 6.65274 121.404 7.0839 121.834 7.51506C122.265 7.94621 122.696 8.37737 123.27 8.80853C123.844 9.23968 124.419 9.67084 125.137 9.95828C125.854 10.2457 126.429 10.6769 127.003 10.9643C129.731 12.4015 131.741 13.9824 133.177 15.5633C134.613 17.4317 135.331 19.4437 135.331 21.8869Z" fill="white"/>
</g>
<defs>
<clipPath id="clip0">
<rect width="341" height="32" fill="white"/>
</clipPath>
</defs>
</svg>