<svg width="1920" height="1080" viewBox="0 0 1920 1080" fill="none" xmlns="http://www.w3.org/2000/svg">
<g clip-path="url(#clip0_1_64)">
<path d="M1920 0H0V1080H1920V0Z" fill="#111417"/>
<path d="M1920 0H0V1080H1920V0Z" fill="#EFEFEF"/>
<mask id="mask0_1_64" style="mask-type:alpha" maskUnits="userSpaceOnUse" x="0" y="0" width="1920" height="1080">
<mask id="mask1_1_64" style="mask-type:luminance" maskUnits="userSpaceOnUse" x="0" y="0" width="1920" height="1080">
<path d="M0 0V1080H1920V0H0Z" fill="white"/>
</mask>
<g mask="url(#mask1_1_64)">
<path d="M-47.532 1294.9L-197.532 1035.09L1967.57 -214.91L2117.57 44.9L-47.532 1294.9Z" fill="#6F488C"/>
<path d="M-72.532 1251.6L-197.532 1035.09L1967.57 -214.91L2092.57 1.59998L-72.532 1251.6Z" fill="#4B7CBC"/>
<path d="M-97.532 1208.3L-197.532 1035.1L1967.57 -214.9L2067.57 -41.7L-97.532 1208.3Z" fill="#7AB392"/>
<path d="M-122.53 1165L-197.53 1035.09L1967.57 -214.91L2042.57 -85L-122.53 1165Z" fill="#F3DB6C"/>
<path d="M-147.53 1121.7L-197.53 1035.1L1967.57 -214.901L2017.57 -128.3L-147.53 1121.7Z" fill="#FB9168"/>
<path d="M-172.53 1078.4L-197.53 1035.1L1967.57 -214.9L1992.57 -171.599L-172.53 1078.4Z" fill="#DF6277"/>
<path d="M1195.4 930C1177.09 930 1046 1005.69 1036.85 1021.55L1195.4 1296.21L1353.99 1021.55C1344.83 1005.69 1213.71 930 1195.4 930Z" fill="white"/>
<path d="M1036.9 1021.6L1195.45 1296.26C1213.76 1296.26 1344.88 1220.56 1354.04 1204.71C1363.19 1188.85 1363.19 1037.46 1354.04 1021.6L1195.45 1113.15L1036.9 1021.6Z" fill="#DFDFDF"/>
<path d="M1036.9 1021.6C1027.74 1037.46 1027.74 1188.85 1036.9 1204.71C1046.05 1220.56 1177.14 1296.26 1195.45 1296.26V1113.15L1036.9 1021.6Z" fill="#D6D2D2"/>
<path d="M122.31 840.53C104 840.53 -27.09 916.225 -36.25 932.082L122.31 1206.74L280.89 932.082C271.735 916.225 140.61 840.53 122.31 840.53Z" fill="white"/>
<path d="M-36.24 932.08L122.32 1206.74C140.63 1206.74 271.75 1131.04 280.9 1115.19C290.056 1099.33 290.056 947.936 280.9 932.086L122.32 1023.64L-36.24 932.08Z" fill="#DFDFDF"/>
<path d="M-36.24 932.08C-45.394 947.938 -45.395 1099.33 -36.24 1115.18C-27.084 1131.04 104.01 1206.73 122.32 1206.73V1023.62L-36.24 932.08Z" fill="#D6D2D2"/>
<path d="M558.245 646.569C539.935 646.569 408.845 722.264 399.685 738.121L558.245 1012.78L716.825 738.121C707.67 722.264 576.545 646.569 558.245 646.569Z" fill="white"/>
<path d="M399.695 738.119L558.255 1012.78C576.565 1012.78 707.685 937.083 716.835 921.225C725.991 905.368 725.991 753.975 716.835 738.125L558.255 829.677L399.695 738.119Z" fill="#DFDFDF"/>
<path d="M399.695 738.119C390.541 753.977 390.54 905.369 399.695 921.219C408.851 937.076 539.945 1012.77 558.255 1012.77V829.663L399.695 738.119Z" fill="#D6D2D2"/>
<path d="M1870.4 770C1852.09 770 1721 845.695 1711.85 861.552L1870.4 1136.21L2028.99 861.552C2019.83 845.695 1888.71 770 1870.4 770Z" fill="white"/>
<path d="M1711.9 861.55L1870.45 1136.21C1888.76 1136.21 2019.88 1060.51 2029.04 1044.66C2038.19 1028.8 2038.19 877.41 2029.04 861.55L1870.45 953.102L1711.9 861.55Z" fill="#DFDFDF"/>
<path d="M1711.9 861.55C1702.74 877.408 1702.74 1028.8 1711.9 1044.66C1721.05 1060.51 1852.14 1136.21 1870.45 1136.21V953.1L1711.9 861.55Z" fill="#D6D2D2"/>
<path d="M1516.1 753C1505.24 753 1427.48 797.897 1422.05 807.302L1516.1 970.212L1610.16 807.302C1604.73 797.897 1526.96 753 1516.1 753Z" fill="white"/>
<path d="M1422.1 807.3L1516.15 970.21C1527.01 970.21 1604.78 925.313 1610.21 915.907C1615.64 906.502 1615.64 816.709 1610.21 807.307L1516.15 861.609L1422.1 807.3Z" fill="#DFDFDF"/>
<path d="M1422.1 807.3C1416.67 816.706 1416.67 906.499 1422.1 915.9C1427.53 925.306 1505.29 970.203 1516.15 970.202V861.602L1422.1 807.3Z" fill="#D6D2D2"/>
<path d="M835.12 942C824.26 942 746.506 986.897 741.076 996.302L835.12 1159.21L929.182 996.302C923.751 986.897 845.981 942 835.12 942Z" fill="white"/>
<path d="M741.07 996.3L835.114 1159.21C845.975 1159.21 923.745 1114.31 929.176 1104.91C934.606 1095.5 934.606 1005.71 929.176 996.3L835.114 1050.6L741.07 996.3Z" fill="#DFDFDF"/>
<path d="M741.07 996.3C735.64 1005.71 735.639 1095.5 741.07 1104.91C746.5 1114.31 824.254 1159.21 835.115 1159.21V1050.6L741.07 996.3Z" fill="#D6D2D2"/>
<path d="M218.857 577.481C207.996 577.481 130.242 622.378 124.812 631.783L218.857 794.693L312.918 631.783C307.488 622.378 229.717 577.481 218.857 577.481Z" fill="white"/>
<path d="M124.807 631.781L218.852 794.692C229.712 794.692 307.483 749.794 312.913 740.388C318.342 730.983 318.342 641.191 312.913 631.789L218.852 686.091L124.807 631.781Z" fill="#DFDFDF"/>
<path d="M124.807 631.781C119.377 641.187 119.376 730.981 124.807 740.382C130.237 749.788 207.991 794.685 218.852 794.684V686.083L124.807 631.781Z" fill="#D6D2D2"/>
<path d="M1009.98 626.606C999.117 626.606 921.363 671.503 915.933 680.908L1009.98 843.818L1104.04 680.908C1098.61 671.503 1020.84 626.606 1009.98 626.606Z" fill="white"/>
<path d="M915.95 680.906L1010 843.816C1020.86 843.816 1098.63 798.919 1104.06 789.513C1109.49 780.108 1109.49 690.315 1104.06 680.913L1010 735.215L915.95 680.906Z" fill="#DFDFDF"/>
<path d="M915.95 680.906C910.52 690.312 910.519 780.105 915.95 789.506C921.38 798.912 999.134 843.809 1010 843.808V735.208L915.95 680.906Z" fill="#D6D2D2"/>
<path d="M1886.1 492C1875.24 492 1797.48 536.897 1792.05 546.302L1886.1 709.212L1980.16 546.302C1974.73 536.897 1896.96 492 1886.1 492Z" fill="white"/>
<path d="M1792.1 546.3L1886.15 709.21C1897.01 709.21 1974.78 664.313 1980.21 654.907C1985.64 645.502 1985.64 555.709 1980.21 546.307L1886.15 600.609L1792.1 546.3Z" fill="#DFDFDF"/>
<path d="M1792.1 546.3C1786.67 555.706 1786.67 645.499 1792.1 654.9C1797.53 664.306 1875.29 709.203 1886.15 709.202V600.602L1792.1 546.3Z" fill="#D6D2D2"/>
<path d="M1705.4 656C1701.04 656 1669.83 674.026 1667.65 677.802L1705.4 743.208L1743.17 677.802C1740.99 674.026 1709.76 656 1705.4 656Z" fill="white"/>
<path d="M1667.6 677.8L1705.35 743.207C1709.71 743.207 1740.94 725.181 1743.12 721.404C1745.3 717.628 1745.3 681.576 1743.12 677.8L1705.35 699.602L1667.6 677.8Z" fill="#DFDFDF"/>
<path d="M1667.6 677.8C1665.42 681.577 1665.41 717.628 1667.6 721.404C1669.78 725.181 1700.99 743.207 1705.35 743.207V699.602L1667.6 677.8Z" fill="#D6D2D2"/>
<path d="M1269.4 751C1265.04 751 1233.83 769.026 1231.65 772.802L1269.4 838.208L1307.17 772.802C1304.99 769.026 1273.76 751 1269.4 751Z" fill="white"/>
<path d="M1231.6 772.8L1269.35 838.207C1273.71 838.207 1304.94 820.181 1307.12 816.404C1309.3 812.628 1309.3 776.576 1307.12 772.8L1269.35 794.602L1231.6 772.8Z" fill="#DFDFDF"/>
<path d="M1231.6 772.8C1229.42 776.577 1229.41 812.628 1231.6 816.404C1233.78 820.181 1264.99 838.207 1269.35 838.207V794.602L1231.6 772.8Z" fill="#D6D2D2"/>
<path d="M799.685 531.212C795.324 531.212 764.106 549.238 761.926 553.014L799.685 618.42L837.45 553.014C835.27 549.238 804.045 531.212 799.685 531.212Z" fill="white"/>
<path d="M761.935 553.012L799.694 618.419C804.054 618.419 835.279 600.393 837.459 596.616C839.639 592.84 839.639 556.788 837.459 553.012L799.694 574.814L761.935 553.012Z" fill="#DFDFDF"/>
<path d="M761.935 553.012C759.755 556.789 759.755 592.84 761.935 596.616C764.116 600.393 795.334 618.419 799.694 618.419V574.814L761.935 553.012Z" fill="#D6D2D2"/>
<path d="M580.861 520.28C576.501 520.28 545.283 538.306 543.103 542.082L580.861 607.488L618.627 542.082C616.446 538.306 585.222 520.28 580.861 520.28Z" fill="white"/>
<path d="M543.111 542.08L580.869 607.487C585.23 607.487 616.454 589.461 618.635 585.684C620.815 581.908 620.815 545.856 618.635 542.08L580.869 563.882L543.111 542.08Z" fill="#DFDFDF"/>
<path d="M543.111 542.08C540.931 545.857 540.931 581.908 543.111 585.684C545.292 589.461 576.51 607.487 580.87 607.487V563.882L543.111 542.08Z" fill="#D6D2D2"/>
<path d="M27.394 743C23.0336 743 -8.18401 761.026 -10.364 764.802L27.394 830.208L65.159 764.802C62.9788 761.026 31.754 743 27.394 743Z" fill="white"/>
<path d="M-10.364 764.8L27.395 830.207C31.7554 830.207 62.98 812.181 65.16 808.404C67.3403 804.628 67.3403 768.576 65.16 764.8L27.395 786.602L-10.364 764.8Z" fill="#DFDFDF"/>
<path d="M-10.3649 764.8C-12.545 768.577 -12.5453 804.628 -10.3649 808.404C-8.18463 812.181 23.0331 830.207 27.3941 830.207V786.602L-10.3649 764.8Z" fill="#D6D2D2"/>
<path d="M83.394 460C79.0336 460 47.816 478.026 45.636 481.802L83.394 547.208L121.16 481.802C118.979 478.026 87.755 460 83.394 460Z" fill="white"/>
<path d="M45.636 481.8L83.395 547.207C87.7554 547.207 118.98 529.181 121.161 525.404C123.341 521.628 123.341 485.576 121.161 481.8L83.395 503.602L45.636 481.8Z" fill="#DFDFDF"/>
<path d="M45.6349 481.8C43.4548 485.577 43.4545 521.628 45.6349 525.404C47.8152 529.181 79.0329 547.207 83.3939 547.207V503.602L45.6349 481.8Z" fill="#D6D2D2"/>
<path d="M1443.4 591C1439.04 591 1407.83 609.026 1405.65 612.802L1443.4 678.208L1481.17 612.802C1478.99 609.026 1447.76 591 1443.4 591Z" fill="white"/>
<path d="M1405.6 612.8L1443.35 678.207C1447.71 678.207 1478.94 660.181 1481.12 656.404C1483.3 652.628 1483.3 616.576 1481.12 612.8L1443.35 634.602L1405.6 612.8Z" fill="#DFDFDF"/>
<path d="M1405.6 612.8C1403.42 616.577 1403.41 652.628 1405.6 656.404C1407.78 660.181 1438.99 678.207 1443.35 678.207V634.602L1405.6 612.8Z" fill="#D6D2D2"/>
</g>
</mask>
<g mask="url(#mask0_1_64)">
<mask id="mask2_1_64" style="mask-type:luminance" maskUnits="userSpaceOnUse" x="0" y="0" width="1920" height="1080">
<path d="M0 0V1080H1920V0H0Z" fill="white"/>
</mask>
<g mask="url(#mask2_1_64)">
<path d="M-47.532 1294.9L-197.532 1035.09L1967.57 -214.91L2117.57 44.9L-47.532 1294.9Z" fill="#6F488C"/>
<path d="M-72.532 1251.6L-197.532 1035.09L1967.57 -214.91L2092.57 1.59998L-72.532 1251.6Z" fill="#4B7CBC"/>
<path d="M-97.532 1208.3L-197.532 1035.1L1967.57 -214.9L2067.57 -41.7L-97.532 1208.3Z" fill="#7AB392"/>
<path d="M-122.53 1165L-197.53 1035.09L1967.57 -214.91L2042.57 -85L-122.53 1165Z" fill="#F3DB6C"/>
<path d="M-147.53 1121.7L-197.53 1035.1L1967.57 -214.901L2017.57 -128.3L-147.53 1121.7Z" fill="#FB9168"/>
<path d="M-172.53 1078.4L-197.53 1035.1L1967.57 -214.9L1992.57 -171.599L-172.53 1078.4Z" fill="#DF6277"/>
<path d="M1195.4 930C1177.09 930 1046 1005.69 1036.85 1021.55L1195.4 1296.21L1353.99 1021.55C1344.83 1005.69 1213.71 930 1195.4 930Z" fill="white"/>
<path d="M1036.9 1021.6L1195.45 1296.26C1213.76 1296.26 1344.88 1220.56 1354.04 1204.71C1363.19 1188.85 1363.19 1037.46 1354.04 1021.6L1195.45 1113.15L1036.9 1021.6Z" fill="#DFDFDF"/>
<path d="M1036.9 1021.6C1027.74 1037.46 1027.74 1188.85 1036.9 1204.71C1046.05 1220.56 1177.14 1296.26 1195.45 1296.26V1113.15L1036.9 1021.6Z" fill="#D6D2D2"/>
<path d="M122.31 840.53C104 840.53 -27.09 916.225 -36.25 932.082L122.31 1206.74L280.89 932.082C271.735 916.225 140.61 840.53 122.31 840.53Z" fill="white"/>
<path d="M-36.24 932.08L122.32 1206.74C140.63 1206.74 271.75 1131.04 280.9 1115.19C290.056 1099.33 290.056 947.936 280.9 932.086L122.32 1023.64L-36.24 932.08Z" fill="#DFDFDF"/>
<path d="M-36.24 932.08C-45.394 947.938 -45.395 1099.33 -36.24 1115.18C-27.084 1131.04 104.01 1206.73 122.32 1206.73V1023.62L-36.24 932.08Z" fill="#D6D2D2"/>
<path d="M558.245 646.569C539.935 646.569 408.845 722.264 399.685 738.121L558.245 1012.78L716.825 738.121C707.67 722.264 576.545 646.569 558.245 646.569Z" fill="white"/>
<path d="M399.695 738.119L558.255 1012.78C576.565 1012.78 707.685 937.083 716.835 921.225C725.991 905.368 725.991 753.975 716.835 738.125L558.255 829.677L399.695 738.119Z" fill="#DFDFDF"/>
<path d="M399.695 738.119C390.541 753.977 390.54 905.369 399.695 921.219C408.851 937.076 539.945 1012.77 558.255 1012.77V829.663L399.695 738.119Z" fill="#D6D2D2"/>
<path d="M1870.4 770C1852.09 770 1721 845.695 1711.85 861.552L1870.4 1136.21L2028.99 861.552C2019.83 845.695 1888.71 770 1870.4 770Z" fill="white"/>
<path d="M1711.9 861.55L1870.45 1136.21C1888.76 1136.21 2019.88 1060.51 2029.04 1044.66C2038.19 1028.8 2038.19 877.41 2029.04 861.55L1870.45 953.102L1711.9 861.55Z" fill="#DFDFDF"/>
<path d="M1711.9 861.55C1702.74 877.408 1702.74 1028.8 1711.9 1044.66C1721.05 1060.51 1852.14 1136.21 1870.45 1136.21V953.1L1711.9 861.55Z" fill="#D6D2D2"/>
<path d="M1516.1 753C1505.24 753 1427.48 797.897 1422.05 807.302L1516.1 970.212L1610.16 807.302C1604.73 797.897 1526.96 753 1516.1 753Z" fill="white"/>
<path d="M1422.1 807.3L1516.15 970.21C1527.01 970.21 1604.78 925.313 1610.21 915.907C1615.64 906.502 1615.64 816.709 1610.21 807.307L1516.15 861.609L1422.1 807.3Z" fill="#DFDFDF"/>
<path d="M1422.1 807.3C1416.67 816.706 1416.67 906.499 1422.1 915.9C1427.53 925.306 1505.29 970.203 1516.15 970.202V861.602L1422.1 807.3Z" fill="#D6D2D2"/>
<path d="M835.12 942C824.26 942 746.506 986.897 741.076 996.302L835.12 1159.21L929.182 996.302C923.751 986.897 845.981 942 835.12 942Z" fill="white"/>
<path d="M741.07 996.3L835.114 1159.21C845.975 1159.21 923.745 1114.31 929.176 1104.91C934.606 1095.5 934.606 1005.71 929.176 996.3L835.114 1050.6L741.07 996.3Z" fill="#DFDFDF"/>
<path d="M741.07 996.3C735.64 1005.71 735.639 1095.5 741.07 1104.91C746.5 1114.31 824.254 1159.21 835.115 1159.21V1050.6L741.07 996.3Z" fill="#D6D2D2"/>
<path d="M218.857 577.481C207.996 577.481 130.242 622.378 124.812 631.783L218.857 794.693L312.918 631.783C307.488 622.378 229.717 577.481 218.857 577.481Z" fill="white"/>
<path d="M124.807 631.781L218.852 794.692C229.712 794.692 307.483 749.794 312.913 740.388C318.342 730.983 318.342 641.191 312.913 631.789L218.852 686.091L124.807 631.781Z" fill="#DFDFDF"/>
<path d="M124.807 631.781C119.377 641.187 119.376 730.981 124.807 740.382C130.237 749.788 207.991 794.685 218.852 794.684V686.083L124.807 631.781Z" fill="#D6D2D2"/>
<path d="M1009.98 626.606C999.117 626.606 921.363 671.503 915.933 680.908L1009.98 843.818L1104.04 680.908C1098.61 671.503 1020.84 626.606 1009.98 626.606Z" fill="white"/>
<path d="M915.95 680.906L1010 843.816C1020.86 843.816 1098.63 798.919 1104.06 789.513C1109.49 780.108 1109.49 690.315 1104.06 680.913L1010 735.215L915.95 680.906Z" fill="#DFDFDF"/>
<path d="M915.95 680.906C910.52 690.312 910.519 780.105 915.95 789.506C921.38 798.912 999.134 843.809 1010 843.808V735.208L915.95 680.906Z" fill="#D6D2D2"/>
<path d="M1886.1 492C1875.24 492 1797.48 536.897 1792.05 546.302L1886.1 709.212L1980.16 546.302C1974.73 536.897 1896.96 492 1886.1 492Z" fill="white"/>
<path d="M1792.1 546.3L1886.15 709.21C1897.01 709.21 1974.78 664.313 1980.21 654.907C1985.64 645.502 1985.64 555.709 1980.21 546.307L1886.15 600.609L1792.1 546.3Z" fill="#DFDFDF"/>
<path d="M1792.1 546.3C1786.67 555.706 1786.67 645.499 1792.1 654.9C1797.53 664.306 1875.29 709.203 1886.15 709.202V600.602L1792.1 546.3Z" fill="#D6D2D2"/>
<path d="M1705.4 656C1701.04 656 1669.83 674.026 1667.65 677.802L1705.4 743.208L1743.17 677.802C1740.99 674.026 1709.76 656 1705.4 656Z" fill="white"/>
<path d="M1667.6 677.8L1705.35 743.207C1709.71 743.207 1740.94 725.181 1743.12 721.404C1745.3 717.628 1745.3 681.576 1743.12 677.8L1705.35 699.602L1667.6 677.8Z" fill="#DFDFDF"/>
<path d="M1667.6 677.8C1665.42 681.577 1665.41 717.628 1667.6 721.404C1669.78 725.181 1700.99 743.207 1705.35 743.207V699.602L1667.6 677.8Z" fill="#D6D2D2"/>
<path d="M1269.4 751C1265.04 751 1233.83 769.026 1231.65 772.802L1269.4 838.208L1307.17 772.802C1304.99 769.026 1273.76 751 1269.4 751Z" fill="white"/>
<path d="M1231.6 772.8L1269.35 838.207C1273.71 838.207 1304.94 820.181 1307.12 816.404C1309.3 812.628 1309.3 776.576 1307.12 772.8L1269.35 794.602L1231.6 772.8Z" fill="#DFDFDF"/>
<path d="M1231.6 772.8C1229.42 776.577 1229.41 812.628 1231.6 816.404C1233.78 820.181 1264.99 838.207 1269.35 838.207V794.602L1231.6 772.8Z" fill="#D6D2D2"/>
<path d="M799.685 531.212C795.324 531.212 764.106 549.238 761.926 553.014L799.685 618.42L837.45 553.014C835.27 549.238 804.045 531.212 799.685 531.212Z" fill="white"/>
<path d="M761.935 553.012L799.694 618.419C804.054 618.419 835.279 600.393 837.459 596.616C839.639 592.84 839.639 556.788 837.459 553.012L799.694 574.814L761.935 553.012Z" fill="#DFDFDF"/>
<path d="M761.935 553.012C759.755 556.789 759.755 592.84 761.935 596.616C764.116 600.393 795.334 618.419 799.694 618.419V574.814L761.935 553.012Z" fill="#D6D2D2"/>
<path d="M580.861 520.28C576.501 520.28 545.283 538.306 543.103 542.082L580.861 607.488L618.627 542.082C616.446 538.306 585.222 520.28 580.861 520.28Z" fill="white"/>
<path d="M543.111 542.08L580.869 607.487C585.23 607.487 616.454 589.461 618.635 585.684C620.815 581.908 620.815 545.856 618.635 542.08L580.869 563.882L543.111 542.08Z" fill="#DFDFDF"/>
<path d="M543.111 542.08C540.931 545.857 540.931 581.908 543.111 585.684C545.292 589.461 576.51 607.487 580.87 607.487V563.882L543.111 542.08Z" fill="#D6D2D2"/>
<path d="M27.394 743C23.0336 743 -8.18401 761.026 -10.364 764.802L27.394 830.208L65.159 764.802C62.9788 761.026 31.754 743 27.394 743Z" fill="white"/>
<path d="M-10.364 764.8L27.395 830.207C31.7554 830.207 62.98 812.181 65.16 808.404C67.3403 804.628 67.3403 768.576 65.16 764.8L27.395 786.602L-10.364 764.8Z" fill="#DFDFDF"/>
<path d="M-10.3649 764.8C-12.545 768.577 -12.5453 804.628 -10.3649 808.404C-8.18463 812.181 23.0331 830.207 27.3941 830.207V786.602L-10.3649 764.8Z" fill="#D6D2D2"/>
<path d="M83.394 460C79.0336 460 47.816 478.026 45.636 481.802L83.394 547.208L121.16 481.802C118.979 478.026 87.755 460 83.394 460Z" fill="white"/>
<path d="M45.636 481.8L83.395 547.207C87.7554 547.207 118.98 529.181 121.161 525.404C123.341 521.628 123.341 485.576 121.161 481.8L83.395 503.602L45.636 481.8Z" fill="#DFDFDF"/>
<path d="M45.6349 481.8C43.4548 485.577 43.4545 521.628 45.6349 525.404C47.8152 529.181 79.0329 547.207 83.3939 547.207V503.602L45.6349 481.8Z" fill="#D6D2D2"/>
<path d="M1443.4 591C1439.04 591 1407.83 609.026 1405.65 612.802L1443.4 678.208L1481.17 612.802C1478.99 609.026 1447.76 591 1443.4 591Z" fill="white"/>
<path d="M1405.6 612.8L1443.35 678.207C1447.71 678.207 1478.94 660.181 1481.12 656.404C1483.3 652.628 1483.3 616.576 1481.12 612.8L1443.35 634.602L1405.6 612.8Z" fill="#DFDFDF"/>
<path d="M1405.6 612.8C1403.42 616.577 1403.41 652.628 1405.6 656.404C1407.78 660.181 1438.99 678.207 1443.35 678.207V634.602L1405.6 612.8Z" fill="#D6D2D2"/>
</g>
<path d="M1920 0H0V1080H1920V0Z" fill="black" fill-opacity="0.25"/>
</g>
</g>
<defs>
<clipPath id="clip0_1_64">
<rect width="1920" height="1080" fill="white"/>
</clipPath>
</defs>
</svg>
